<svg width="343" height="149" viewBox="0 0 343 149" fill="none" xmlns="http://www.w3.org/2000/svg">
<g filter="url(#filter0_d_196_70)">
<rect x="14" y="19" width="315" height="111" rx="20" fill="#F7F7F7"/>
</g>
<g filter="url(#filter1_d_196_70)">
<rect x="14" y="19" width="315" height="111" rx="20" fill="#F7F7F7"/>
</g>
<path d="M124.525 105.414H118.716L117.397 109H116.264L121.106 96.2031H122.135L126.978 109H125.853L124.525 105.414ZM119.05 104.491H124.183L121.616 97.5215L119.05 104.491ZM134.624 109C134.519 108.701 134.451 108.259 134.422 107.673C134.053 108.153 133.581 108.525 133.007 108.789C132.438 109.047 131.835 109.176 131.196 109.176C130.282 109.176 129.541 108.921 128.973 108.411C128.41 107.901 128.129 107.257 128.129 106.478C128.129 105.552 128.513 104.819 129.28 104.28C130.054 103.741 131.129 103.472 132.506 103.472H134.413V102.391C134.413 101.711 134.202 101.178 133.78 100.791C133.364 100.398 132.755 100.202 131.952 100.202C131.22 100.202 130.613 100.39 130.133 100.765C129.652 101.14 129.412 101.591 129.412 102.118L128.357 102.109C128.357 101.354 128.709 100.7 129.412 100.149C130.115 99.5928 130.979 99.3145 132.005 99.3145C133.065 99.3145 133.9 99.5811 134.51 100.114C135.125 100.642 135.441 101.38 135.459 102.329V106.829C135.459 107.749 135.556 108.438 135.749 108.895V109H134.624ZM131.319 108.244C132.022 108.244 132.649 108.074 133.2 107.734C133.757 107.395 134.161 106.94 134.413 106.372V104.28H132.532C131.483 104.292 130.663 104.485 130.071 104.86C129.479 105.229 129.184 105.739 129.184 106.39C129.184 106.923 129.38 107.365 129.772 107.717C130.171 108.068 130.687 108.244 131.319 108.244ZM137.85 104.157C137.85 102.681 138.178 101.506 138.834 100.633C139.496 99.7539 140.393 99.3145 141.523 99.3145C142.807 99.3145 143.785 99.8213 144.459 100.835V95.5H145.505V109H144.521L144.477 107.734C143.803 108.695 142.812 109.176 141.506 109.176C140.41 109.176 139.525 108.736 138.852 107.857C138.184 106.973 137.85 105.78 137.85 104.28V104.157ZM138.913 104.342C138.913 105.555 139.156 106.513 139.643 107.216C140.129 107.913 140.814 108.262 141.699 108.262C142.994 108.262 143.914 107.69 144.459 106.548V102.083C143.914 100.847 143 100.229 141.717 100.229C140.832 100.229 140.144 100.577 139.651 101.274C139.159 101.966 138.913 102.988 138.913 104.342ZM149.319 101.099C149.665 100.53 150.107 100.091 150.646 99.7803C151.186 99.4697 151.774 99.3145 152.413 99.3145C153.433 99.3145 154.191 99.6016 154.689 100.176C155.188 100.75 155.439 101.611 155.445 102.76V109H154.399V102.751C154.394 101.901 154.212 101.269 153.854 100.853C153.503 100.437 152.938 100.229 152.158 100.229C151.508 100.229 150.931 100.434 150.427 100.844C149.929 101.248 149.56 101.796 149.319 102.487V109H148.273V95.5H149.319V101.099ZM164.155 109C164.05 108.701 163.982 108.259 163.953 107.673C163.584 108.153 163.112 108.525 162.538 108.789C161.97 109.047 161.366 109.176 160.728 109.176C159.813 109.176 159.072 108.921 158.504 108.411C157.941 107.901 157.66 107.257 157.66 106.478C157.66 105.552 158.044 104.819 158.812 104.28C159.585 103.741 160.66 103.472 162.037 103.472H163.944V102.391C163.944 101.711 163.733 101.178 163.312 100.791C162.896 100.398 162.286 100.202 161.483 100.202C160.751 100.202 160.145 100.39 159.664 100.765C159.184 101.14 158.943 101.591 158.943 102.118L157.889 102.109C157.889 101.354 158.24 100.7 158.943 100.149C159.646 99.5928 160.511 99.3145 161.536 99.3145C162.597 99.3145 163.432 99.5811 164.041 100.114C164.656 100.642 164.973 101.38 164.99 102.329V106.829C164.99 107.749 165.087 108.438 165.28 108.895V109H164.155ZM160.851 108.244C161.554 108.244 162.181 108.074 162.731 107.734C163.288 107.395 163.692 106.94 163.944 106.372V104.28H162.063C161.015 104.292 160.194 104.485 159.603 104.86C159.011 105.229 158.715 105.739 158.715 106.39C158.715 106.923 158.911 107.365 159.304 107.717C159.702 108.068 160.218 108.244 160.851 108.244ZM172.197 100.387C171.975 100.346 171.737 100.325 171.485 100.325C170.829 100.325 170.272 100.51 169.815 100.879C169.364 101.242 169.042 101.772 168.849 102.47V109H167.803V99.4902H168.831L168.849 101.002C169.405 99.877 170.299 99.3145 171.529 99.3145C171.822 99.3145 172.054 99.3525 172.224 99.4287L172.197 100.387ZM187.552 105.01C187.405 106.357 186.922 107.389 186.102 108.104C185.287 108.818 184.2 109.176 182.841 109.176C181.892 109.176 181.051 108.938 180.318 108.464C179.592 107.989 179.029 107.318 178.631 106.451C178.232 105.578 178.03 104.582 178.024 103.463V101.802C178.024 100.665 178.224 99.6572 178.622 98.7783C179.021 97.8994 179.592 97.2227 180.336 96.748C181.086 96.2676 181.947 96.0273 182.92 96.0273C184.291 96.0273 185.372 96.3994 186.163 97.1436C186.96 97.8818 187.423 98.9043 187.552 100.211H186.462C186.192 98.0371 185.012 96.9502 182.92 96.9502C181.76 96.9502 180.834 97.3838 180.143 98.251C179.457 99.1182 179.114 100.316 179.114 101.846V103.41C179.114 104.887 179.448 106.064 180.116 106.943C180.79 107.822 181.698 108.262 182.841 108.262C183.972 108.262 184.824 107.992 185.398 107.453C185.973 106.908 186.327 106.094 186.462 105.01H187.552ZM195.937 109C195.831 108.701 195.764 108.259 195.734 107.673C195.365 108.153 194.894 108.525 194.319 108.789C193.751 109.047 193.147 109.176 192.509 109.176C191.595 109.176 190.854 108.921 190.285 108.411C189.723 107.901 189.441 107.257 189.441 106.478C189.441 105.552 189.825 104.819 190.593 104.28C191.366 103.741 192.441 103.472 193.818 103.472H195.726V102.391C195.726 101.711 195.515 101.178 195.093 100.791C194.677 100.398 194.067 100.202 193.265 100.202C192.532 100.202 191.926 100.39 191.445 100.765C190.965 101.14 190.725 101.591 190.725 102.118L189.67 102.109C189.67 101.354 190.021 100.7 190.725 100.149C191.428 99.5928 192.292 99.3145 193.317 99.3145C194.378 99.3145 195.213 99.5811 195.822 100.114C196.438 100.642 196.754 101.38 196.771 102.329V106.829C196.771 107.749 196.868 108.438 197.062 108.895V109H195.937ZM192.632 108.244C193.335 108.244 193.962 108.074 194.513 107.734C195.069 107.395 195.474 106.94 195.726 106.372V104.28H193.845C192.796 104.292 191.976 104.485 191.384 104.86C190.792 105.229 190.496 105.739 190.496 106.39C190.496 106.923 190.692 107.365 191.085 107.717C191.483 108.068 191.999 108.244 192.632 108.244ZM203.979 100.387C203.756 100.346 203.519 100.325 203.267 100.325C202.61 100.325 202.054 100.51 201.597 100.879C201.146 101.242 200.823 101.772 200.63 102.47V109H199.584V99.4902H200.612L200.63 101.002C201.187 99.877 202.08 99.3145 203.311 99.3145C203.604 99.3145 203.835 99.3525 204.005 99.4287L203.979 100.387ZM205.051 104.157C205.051 102.681 205.379 101.506 206.035 100.633C206.697 99.7539 207.594 99.3145 208.725 99.3145C210.008 99.3145 210.986 99.8213 211.66 100.835V95.5H212.706V109H211.722L211.678 107.734C211.004 108.695 210.014 109.176 208.707 109.176C207.611 109.176 206.727 108.736 206.053 107.857C205.385 106.973 205.051 105.78 205.051 104.28V104.157ZM206.114 104.342C206.114 105.555 206.357 106.513 206.844 107.216C207.33 107.913 208.016 108.262 208.9 108.262C210.195 108.262 211.115 107.69 211.66 106.548V102.083C211.115 100.847 210.201 100.229 208.918 100.229C208.033 100.229 207.345 100.577 206.853 101.274C206.36 101.966 206.114 102.988 206.114 104.342Z" fill="#383838"/>
<defs>
<filter id="filter0_d_196_70" x="4" y="14" width="339" height="135" filterUnits="userSpaceOnUse" color-interpolation-filters="sRGB">
<feFlood flood-opacity="0" result="BackgroundImageFix"/>
<feColorMatrix in="SourceAlpha" type="matrix" values="0 0 0 0 0 0 0 0 0 0 0 0 0 0 0 0 0 0 127 0" result="hardAlpha"/>
<feOffset dx="2" dy="7"/>
<feGaussianBlur stdDeviation="6"/>
<feComposite in2="hardAlpha" operator="out"/>
<feColorMatrix type="matrix" values="0 0 0 0 0.516667 0 0 0 0 0.508056 0 0 0 0 0.508056 0 0 0 0.25 0"/>
<feBlend mode="normal" in2="BackgroundImageFix" result="effect1_dropShadow_196_70"/>
<feBlend mode="normal" in="SourceGraphic" in2="effect1_dropShadow_196_70" result="shape"/>
</filter>
<filter id="filter1_d_196_70" x="0" y="0" width="339" height="135" filterUnits="userSpaceOnUse" color-interpolation-filters="sRGB">
<feFlood flood-opacity="0" result="BackgroundImageFix"/>
<feColorMatrix in="SourceAlpha" type="matrix" values="0 0 0 0 0 0 0 0 0 0 0 0 0 0 0 0 0 0 127 0" result="hardAlpha"/>
<feOffset dx="-2" dy="-7"/>
<feGaussianBlur stdDeviation="6"/>
<feComposite in2="hardAlpha" operator="out"/>
<feColorMatrix type="matrix" values="0 0 0 0 1 0 0 0 0 1 0 0 0 0 1 0 0 0 1 0"/>
<feBlend mode="normal" in2="BackgroundImageFix" result="effect1_dropShadow_196_70"/>
<feBlend mode="normal" in="SourceGraphic" in2="effect1_dropShadow_196_70" result="shape"/>
</filter>
</defs>
</svg>
