<svg width="343" height="149" viewBox="0 0 343 149" fill="none" xmlns="http://www.w3.org/2000/svg">
    <g filter="url(#filter0_d_196_72)">
    <rect x="14" y="19" width="315" height="111" rx="20" fill="#F7F7F7"/>
    </g>
    <g filter="url(#filter1_d_196_72)">
    <rect x="14" y="19" width="315" height="111" rx="20" fill="#F7F7F7"/>
    </g>
    <path d="M100.666 102.023H94.6982V108H93.6172V95.2031H101.545V96.126H94.6982V101.101H100.666V102.023ZM102.723 103.104C102.723 102.19 102.898 101.367 103.25 100.635C103.607 99.9023 104.108 99.334 104.753 98.9297C105.403 98.5195 106.139 98.3145 106.959 98.3145C108.225 98.3145 109.25 98.7598 110.035 99.6504C110.82 100.535 111.213 101.71 111.213 103.175V103.395C111.213 104.314 111.034 105.144 110.677 105.882C110.325 106.614 109.827 107.18 109.183 107.578C108.538 107.977 107.803 108.176 106.977 108.176C105.717 108.176 104.691 107.733 103.9 106.849C103.115 105.958 102.723 104.78 102.723 103.315V103.104ZM103.777 103.395C103.777 104.531 104.07 105.466 104.656 106.198C105.248 106.925 106.021 107.288 106.977 107.288C107.926 107.288 108.693 106.925 109.279 106.198C109.871 105.466 110.167 104.502 110.167 103.307V103.104C110.167 102.378 110.032 101.713 109.763 101.109C109.493 100.506 109.115 100.04 108.629 99.7119C108.143 99.3779 107.586 99.2109 106.959 99.2109C106.021 99.2109 105.257 99.5801 104.665 100.318C104.073 101.051 103.777 102.012 103.777 103.201V103.395ZM112.812 103.104C112.812 102.19 112.988 101.367 113.34 100.635C113.697 99.9023 114.198 99.334 114.843 98.9297C115.493 98.5195 116.229 98.3145 117.049 98.3145C118.314 98.3145 119.34 98.7598 120.125 99.6504C120.91 100.535 121.303 101.71 121.303 103.175V103.395C121.303 104.314 121.124 105.144 120.767 105.882C120.415 106.614 119.917 107.18 119.272 107.578C118.628 107.977 117.893 108.176 117.066 108.176C115.807 108.176 114.781 107.733 113.99 106.849C113.205 105.958 112.812 104.78 112.812 103.315V103.104ZM113.867 103.395C113.867 104.531 114.16 105.466 114.746 106.198C115.338 106.925 116.111 107.288 117.066 107.288C118.016 107.288 118.783 106.925 119.369 106.198C119.961 105.466 120.257 104.502 120.257 103.307V103.104C120.257 102.378 120.122 101.713 119.853 101.109C119.583 100.506 119.205 100.04 118.719 99.7119C118.232 99.3779 117.676 99.2109 117.049 99.2109C116.111 99.2109 115.347 99.5801 114.755 100.318C114.163 101.051 113.867 102.012 113.867 103.201V103.395ZM123.061 103.157C123.061 101.681 123.389 100.506 124.045 99.6328C124.707 98.7539 125.604 98.3145 126.734 98.3145C128.018 98.3145 128.996 98.8213 129.67 99.835V94.5H130.716V108H129.731L129.688 106.734C129.014 107.695 128.023 108.176 126.717 108.176C125.621 108.176 124.736 107.736 124.062 106.857C123.395 105.973 123.061 104.78 123.061 103.28V103.157ZM124.124 103.342C124.124 104.555 124.367 105.513 124.854 106.216C125.34 106.913 126.025 107.262 126.91 107.262C128.205 107.262 129.125 106.69 129.67 105.548V101.083C129.125 99.8467 128.211 99.2285 126.928 99.2285C126.043 99.2285 125.354 99.5771 124.862 100.274C124.37 100.966 124.124 101.988 124.124 103.342ZM139.197 107.086H145.517V108H138.107V95.2031H139.197V107.086ZM148.531 108H147.477V98.4902H148.531V108ZM147.292 95.7393C147.292 95.54 147.356 95.373 147.485 95.2383C147.614 95.0977 147.79 95.0273 148.013 95.0273C148.235 95.0273 148.411 95.0977 148.54 95.2383C148.675 95.373 148.742 95.54 148.742 95.7393C148.742 95.9385 148.675 96.1055 148.54 96.2402C148.411 96.375 148.235 96.4424 148.013 96.4424C147.79 96.4424 147.614 96.375 147.485 96.2402C147.356 96.1055 147.292 95.9385 147.292 95.7393ZM154.912 107.288C155.645 107.288 156.257 107.083 156.749 106.673C157.247 106.257 157.517 105.721 157.558 105.064H158.568C158.539 105.645 158.357 106.175 158.023 106.655C157.689 107.13 157.244 107.502 156.688 107.771C156.137 108.041 155.545 108.176 154.912 108.176C153.664 108.176 152.674 107.742 151.941 106.875C151.215 106.008 150.852 104.842 150.852 103.377V103.061C150.852 102.123 151.016 101.294 151.344 100.573C151.672 99.8525 152.141 99.2959 152.75 98.9033C153.365 98.5107 154.083 98.3145 154.903 98.3145C155.946 98.3145 156.805 98.625 157.479 99.2461C158.158 99.8672 158.521 100.685 158.568 101.698H157.558C157.511 100.954 157.241 100.354 156.749 99.8965C156.263 99.4395 155.647 99.2109 154.903 99.2109C153.954 99.2109 153.216 99.5537 152.688 100.239C152.167 100.925 151.906 101.886 151.906 103.122V103.43C151.906 104.643 152.167 105.589 152.688 106.269C153.216 106.948 153.957 107.288 154.912 107.288ZM164.36 108.176C163.552 108.176 162.819 107.977 162.163 107.578C161.513 107.18 161.006 106.626 160.643 105.917C160.279 105.202 160.098 104.402 160.098 103.518V103.14C160.098 102.226 160.273 101.402 160.625 100.67C160.982 99.9375 161.478 99.3633 162.11 98.9473C162.743 98.5254 163.429 98.3145 164.167 98.3145C165.321 98.3145 166.235 98.71 166.909 99.501C167.589 100.286 167.929 101.361 167.929 102.727V103.315H161.144V103.518C161.144 104.596 161.451 105.495 162.066 106.216C162.688 106.931 163.467 107.288 164.404 107.288C164.967 107.288 165.462 107.186 165.89 106.98C166.323 106.775 166.716 106.447 167.067 105.996L167.727 106.497C166.953 107.616 165.831 108.176 164.36 108.176ZM164.167 99.2109C163.376 99.2109 162.708 99.501 162.163 100.081C161.624 100.661 161.296 101.44 161.179 102.419H166.883V102.305C166.854 101.391 166.593 100.646 166.101 100.072C165.608 99.498 164.964 99.2109 164.167 99.2109ZM170.979 98.4902L171.014 100.116C171.371 99.5303 171.816 99.085 172.35 98.7803C172.883 98.4697 173.472 98.3145 174.116 98.3145C175.136 98.3145 175.895 98.6016 176.393 99.1758C176.891 99.75 177.143 100.611 177.148 101.76V108H176.103V101.751C176.097 100.901 175.915 100.269 175.558 99.8525C175.206 99.4365 174.641 99.2285 173.861 99.2285C173.211 99.2285 172.634 99.4336 172.13 99.8438C171.632 100.248 171.263 100.796 171.022 101.487V108H169.977V98.4902H170.979ZM183.389 107.288C184.121 107.288 184.733 107.083 185.226 106.673C185.724 106.257 185.993 105.721 186.034 105.064H187.045C187.016 105.645 186.834 106.175 186.5 106.655C186.166 107.13 185.721 107.502 185.164 107.771C184.613 108.041 184.021 108.176 183.389 108.176C182.141 108.176 181.15 107.742 180.418 106.875C179.691 106.008 179.328 104.842 179.328 103.377V103.061C179.328 102.123 179.492 101.294 179.82 100.573C180.148 99.8525 180.617 99.2959 181.227 98.9033C181.842 98.5107 182.56 98.3145 183.38 98.3145C184.423 98.3145 185.281 98.625 185.955 99.2461C186.635 99.8672 186.998 100.685 187.045 101.698H186.034C185.987 100.954 185.718 100.354 185.226 99.8965C184.739 99.4395 184.124 99.2109 183.38 99.2109C182.431 99.2109 181.692 99.5537 181.165 100.239C180.644 100.925 180.383 101.886 180.383 103.122V103.43C180.383 104.643 180.644 105.589 181.165 106.269C181.692 106.948 182.434 107.288 183.389 107.288ZM192.837 108.176C192.028 108.176 191.296 107.977 190.64 107.578C189.989 107.18 189.482 106.626 189.119 105.917C188.756 105.202 188.574 104.402 188.574 103.518V103.14C188.574 102.226 188.75 101.402 189.102 100.67C189.459 99.9375 189.954 99.3633 190.587 98.9473C191.22 98.5254 191.905 98.3145 192.644 98.3145C193.798 98.3145 194.712 98.71 195.386 99.501C196.065 100.286 196.405 101.361 196.405 102.727V103.315H189.62V103.518C189.62 104.596 189.928 105.495 190.543 106.216C191.164 106.931 191.943 107.288 192.881 107.288C193.443 107.288 193.938 107.186 194.366 106.98C194.8 106.775 195.192 106.447 195.544 105.996L196.203 106.497C195.43 107.616 194.308 108.176 192.837 108.176ZM192.644 99.2109C191.853 99.2109 191.185 99.501 190.64 100.081C190.101 100.661 189.772 101.44 189.655 102.419H195.359V102.305C195.33 101.391 195.069 100.646 194.577 100.072C194.085 99.498 193.44 99.2109 192.644 99.2109ZM198.304 109.099H197.346L202.689 95.2031H203.639L198.304 109.099ZM212.902 102.023H206.935V108H205.854V95.2031H213.781V96.126H206.935V101.101H212.902V102.023ZM223.221 104.854C223.221 104.145 222.972 103.585 222.474 103.175C221.976 102.759 221.064 102.366 219.74 101.997C218.416 101.622 217.449 101.215 216.84 100.775C215.973 100.154 215.539 99.3398 215.539 98.332C215.539 97.3535 215.94 96.5596 216.743 95.9502C217.552 95.335 218.583 95.0273 219.837 95.0273C220.687 95.0273 221.445 95.1914 222.113 95.5195C222.787 95.8477 223.309 96.3047 223.678 96.8906C224.047 97.4766 224.231 98.1299 224.231 98.8506H223.142C223.142 97.9775 222.843 97.2773 222.245 96.75C221.647 96.2168 220.845 95.9502 219.837 95.9502C218.858 95.9502 218.079 96.1699 217.499 96.6094C216.919 97.043 216.629 97.6113 216.629 98.3145C216.629 98.9648 216.89 99.4951 217.411 99.9053C217.933 100.315 218.768 100.679 219.916 100.995C221.064 101.306 221.935 101.631 222.526 101.971C223.118 102.305 223.563 102.706 223.862 103.175C224.161 103.644 224.311 104.197 224.311 104.836C224.311 105.844 223.906 106.652 223.098 107.262C222.295 107.871 221.234 108.176 219.916 108.176C219.014 108.176 218.185 108.015 217.429 107.692C216.679 107.37 216.107 106.919 215.715 106.339C215.328 105.759 215.135 105.094 215.135 104.344H216.216C216.216 105.246 216.553 105.958 217.227 106.479C217.9 107.001 218.797 107.262 219.916 107.262C220.912 107.262 221.712 107.042 222.315 106.603C222.919 106.163 223.221 105.58 223.221 104.854ZM233.891 104.854C233.891 104.145 233.642 103.585 233.144 103.175C232.646 102.759 231.734 102.366 230.41 101.997C229.086 101.622 228.119 101.215 227.51 100.775C226.643 100.154 226.209 99.3398 226.209 98.332C226.209 97.3535 226.61 96.5596 227.413 95.9502C228.222 95.335 229.253 95.0273 230.507 95.0273C231.356 95.0273 232.115 95.1914 232.783 95.5195C233.457 95.8477 233.979 96.3047 234.348 96.8906C234.717 97.4766 234.901 98.1299 234.901 98.8506H233.812C233.812 97.9775 233.513 97.2773 232.915 96.75C232.317 96.2168 231.515 95.9502 230.507 95.9502C229.528 95.9502 228.749 96.1699 228.169 96.6094C227.589 97.043 227.299 97.6113 227.299 98.3145C227.299 98.9648 227.56 99.4951 228.081 99.9053C228.603 100.315 229.438 100.679 230.586 100.995C231.734 101.306 232.604 101.631 233.196 101.971C233.788 102.305 234.233 102.706 234.532 103.175C234.831 103.644 234.98 104.197 234.98 104.836C234.98 105.844 234.576 106.652 233.768 107.262C232.965 107.871 231.904 108.176 230.586 108.176C229.684 108.176 228.854 108.015 228.099 107.692C227.349 107.37 226.777 106.919 226.385 106.339C225.998 105.759 225.805 105.094 225.805 104.344H226.886C226.886 105.246 227.223 105.958 227.896 106.479C228.57 107.001 229.467 107.262 230.586 107.262C231.582 107.262 232.382 107.042 232.985 106.603C233.589 106.163 233.891 105.58 233.891 104.854ZM244.227 104.414H238.417L237.099 108H235.965L240.808 95.2031H241.836L246.679 108H245.554L244.227 104.414ZM238.751 103.491H243.884L241.317 96.5215L238.751 103.491ZM249.887 108H248.806V95.2031H249.887V108Z" fill="#383838"/>
    <defs>
    <filter id="filter0_d_196_72" x="4" y="14" width="339" height="135" filterUnits="userSpaceOnUse" color-interpolation-filters="sRGB">
    <feFlood flood-opacity="0" result="BackgroundImageFix"/>
    <feColorMatrix in="SourceAlpha" type="matrix" values="0 0 0 0 0 0 0 0 0 0 0 0 0 0 0 0 0 0 127 0" result="hardAlpha"/>
    <feOffset dx="2" dy="7"/>
    <feGaussianBlur stdDeviation="6"/>
    <feComposite in2="hardAlpha" operator="out"/>
    <feColorMatrix type="matrix" values="0 0 0 0 0.516667 0 0 0 0 0.508056 0 0 0 0 0.508056 0 0 0 0.25 0"/>
    <feBlend mode="normal" in2="BackgroundImageFix" result="effect1_dropShadow_196_72"/>
    <feBlend mode="normal" in="SourceGraphic" in2="effect1_dropShadow_196_72" result="shape"/>
    </filter>
    <filter id="filter1_d_196_72" x="0" y="0" width="339" height="135" filterUnits="userSpaceOnUse" color-interpolation-filters="sRGB">
    <feFlood flood-opacity="0" result="BackgroundImageFix"/>
    <feColorMatrix in="SourceAlpha" type="matrix" values="0 0 0 0 0 0 0 0 0 0 0 0 0 0 0 0 0 0 127 0" result="hardAlpha"/>
    <feOffset dx="-2" dy="-7"/>
    <feGaussianBlur stdDeviation="6"/>
    <feComposite in2="hardAlpha" operator="out"/>
    <feColorMatrix type="matrix" values="0 0 0 0 1 0 0 0 0 1 0 0 0 0 1 0 0 0 1 0"/>
    <feBlend mode="normal" in2="BackgroundImageFix" result="effect1_dropShadow_196_72"/>
    <feBlend mode="normal" in="SourceGraphic" in2="effect1_dropShadow_196_72" result="shape"/>
    </filter>
    </defs>
    </svg>
    