<svg width="343" height="149" viewBox="0 0 343 149" fill="none" xmlns="http://www.w3.org/2000/svg">
    <g filter="url(#filter0_d_196_71)">
    <rect x="14" y="19" width="315" height="111" rx="20" fill="#F7F7F7"/>
    </g>
    <g filter="url(#filter1_d_196_71)">
    <rect x="14" y="19" width="315" height="111" rx="20" fill="#F7F7F7"/>
    </g>
    <path d="M126.301 99.126H121.915V111H120.834V99.126H116.457V98.2031H126.301V99.126ZM131.855 102.387C131.633 102.346 131.396 102.325 131.144 102.325C130.487 102.325 129.931 102.51 129.474 102.879C129.022 103.242 128.7 103.772 128.507 104.47V111H127.461V101.49H128.489L128.507 103.002C129.063 101.877 129.957 101.314 131.188 101.314C131.48 101.314 131.712 101.353 131.882 101.429L131.855 102.387ZM139.177 111C139.071 110.701 139.004 110.259 138.975 109.673C138.605 110.153 138.134 110.525 137.56 110.789C136.991 111.047 136.388 111.176 135.749 111.176C134.835 111.176 134.094 110.921 133.525 110.411C132.963 109.901 132.682 109.257 132.682 108.478C132.682 107.552 133.065 106.819 133.833 106.28C134.606 105.741 135.682 105.472 137.059 105.472H138.966V104.391C138.966 103.711 138.755 103.178 138.333 102.791C137.917 102.398 137.308 102.202 136.505 102.202C135.772 102.202 135.166 102.39 134.686 102.765C134.205 103.14 133.965 103.591 133.965 104.118L132.91 104.109C132.91 103.354 133.262 102.7 133.965 102.149C134.668 101.593 135.532 101.314 136.558 101.314C137.618 101.314 138.453 101.581 139.062 102.114C139.678 102.642 139.994 103.38 140.012 104.329V108.829C140.012 109.749 140.108 110.438 140.302 110.895V111H139.177ZM135.872 110.244C136.575 110.244 137.202 110.074 137.753 109.734C138.31 109.395 138.714 108.94 138.966 108.372V106.28H137.085C136.036 106.292 135.216 106.485 134.624 106.86C134.032 107.229 133.736 107.739 133.736 108.39C133.736 108.923 133.933 109.365 134.325 109.717C134.724 110.068 135.239 110.244 135.872 110.244ZM142.402 106.157C142.402 104.681 142.73 103.506 143.387 102.633C144.049 101.754 144.945 101.314 146.076 101.314C147.359 101.314 148.338 101.821 149.012 102.835V97.5H150.058V111H149.073L149.029 109.734C148.355 110.695 147.365 111.176 146.059 111.176C144.963 111.176 144.078 110.736 143.404 109.857C142.736 108.973 142.402 107.78 142.402 106.28V106.157ZM143.466 106.342C143.466 107.555 143.709 108.513 144.195 109.216C144.682 109.913 145.367 110.262 146.252 110.262C147.547 110.262 148.467 109.69 149.012 108.548V104.083C148.467 102.847 147.553 102.229 146.27 102.229C145.385 102.229 144.696 102.577 144.204 103.274C143.712 103.966 143.466 104.988 143.466 106.342ZM156.509 111.176C155.7 111.176 154.968 110.977 154.312 110.578C153.661 110.18 153.154 109.626 152.791 108.917C152.428 108.202 152.246 107.402 152.246 106.518V106.14C152.246 105.226 152.422 104.402 152.773 103.67C153.131 102.938 153.626 102.363 154.259 101.947C154.892 101.525 155.577 101.314 156.315 101.314C157.47 101.314 158.384 101.71 159.058 102.501C159.737 103.286 160.077 104.361 160.077 105.727V106.315H153.292V106.518C153.292 107.596 153.6 108.495 154.215 109.216C154.836 109.931 155.615 110.288 156.553 110.288C157.115 110.288 157.61 110.186 158.038 109.98C158.472 109.775 158.864 109.447 159.216 108.996L159.875 109.497C159.102 110.616 157.979 111.176 156.509 111.176ZM156.315 102.211C155.524 102.211 154.856 102.501 154.312 103.081C153.772 103.661 153.444 104.44 153.327 105.419H159.031V105.305C159.002 104.391 158.741 103.646 158.249 103.072C157.757 102.498 157.112 102.211 156.315 102.211ZM167.838 110.086H174.157V111H166.748V98.2031H167.838V110.086ZM177.172 111H176.117V101.49H177.172V111ZM175.933 98.7393C175.933 98.54 175.997 98.373 176.126 98.2383C176.255 98.0977 176.431 98.0273 176.653 98.0273C176.876 98.0273 177.052 98.0977 177.181 98.2383C177.315 98.373 177.383 98.54 177.383 98.7393C177.383 98.9385 177.315 99.1055 177.181 99.2402C177.052 99.375 176.876 99.4424 176.653 99.4424C176.431 99.4424 176.255 99.375 176.126 99.2402C175.997 99.1055 175.933 98.9385 175.933 98.7393ZM183.553 110.288C184.285 110.288 184.897 110.083 185.39 109.673C185.888 109.257 186.157 108.721 186.198 108.064H187.209C187.18 108.645 186.998 109.175 186.664 109.655C186.33 110.13 185.885 110.502 185.328 110.771C184.777 111.041 184.186 111.176 183.553 111.176C182.305 111.176 181.314 110.742 180.582 109.875C179.855 109.008 179.492 107.842 179.492 106.377V106.061C179.492 105.123 179.656 104.294 179.984 103.573C180.312 102.853 180.781 102.296 181.391 101.903C182.006 101.511 182.724 101.314 183.544 101.314C184.587 101.314 185.445 101.625 186.119 102.246C186.799 102.867 187.162 103.685 187.209 104.698H186.198C186.151 103.954 185.882 103.354 185.39 102.896C184.903 102.439 184.288 102.211 183.544 102.211C182.595 102.211 181.856 102.554 181.329 103.239C180.808 103.925 180.547 104.886 180.547 106.122V106.43C180.547 107.643 180.808 108.589 181.329 109.269C181.856 109.948 182.598 110.288 183.553 110.288ZM193.001 111.176C192.192 111.176 191.46 110.977 190.804 110.578C190.153 110.18 189.646 109.626 189.283 108.917C188.92 108.202 188.738 107.402 188.738 106.518V106.14C188.738 105.226 188.914 104.402 189.266 103.67C189.623 102.938 190.118 102.363 190.751 101.947C191.384 101.525 192.069 101.314 192.808 101.314C193.962 101.314 194.876 101.71 195.55 102.501C196.229 103.286 196.569 104.361 196.569 105.727V106.315H189.784V106.518C189.784 107.596 190.092 108.495 190.707 109.216C191.328 109.931 192.107 110.288 193.045 110.288C193.607 110.288 194.103 110.186 194.53 109.98C194.964 109.775 195.356 109.447 195.708 108.996L196.367 109.497C195.594 110.616 194.472 111.176 193.001 111.176ZM192.808 102.211C192.017 102.211 191.349 102.501 190.804 103.081C190.265 103.661 189.937 104.44 189.819 105.419H195.523V105.305C195.494 104.391 195.233 103.646 194.741 103.072C194.249 102.498 193.604 102.211 192.808 102.211ZM199.619 101.49L199.654 103.116C200.012 102.53 200.457 102.085 200.99 101.78C201.523 101.47 202.112 101.314 202.757 101.314C203.776 101.314 204.535 101.602 205.033 102.176C205.531 102.75 205.783 103.611 205.789 104.76V111H204.743V104.751C204.737 103.901 204.556 103.269 204.198 102.853C203.847 102.437 203.281 102.229 202.502 102.229C201.852 102.229 201.274 102.434 200.771 102.844C200.272 103.248 199.903 103.796 199.663 104.487V111H198.617V101.49H199.619ZM212.029 110.288C212.762 110.288 213.374 110.083 213.866 109.673C214.364 109.257 214.634 108.721 214.675 108.064H215.686C215.656 108.645 215.475 109.175 215.141 109.655C214.807 110.13 214.361 110.502 213.805 110.771C213.254 111.041 212.662 111.176 212.029 111.176C210.781 111.176 209.791 110.742 209.059 109.875C208.332 109.008 207.969 107.842 207.969 106.377V106.061C207.969 105.123 208.133 104.294 208.461 103.573C208.789 102.853 209.258 102.296 209.867 101.903C210.482 101.511 211.2 101.314 212.021 101.314C213.063 101.314 213.922 101.625 214.596 102.246C215.275 102.867 215.639 103.685 215.686 104.698H214.675C214.628 103.954 214.358 103.354 213.866 102.896C213.38 102.439 212.765 102.211 212.021 102.211C211.071 102.211 210.333 102.554 209.806 103.239C209.284 103.925 209.023 104.886 209.023 106.122V106.43C209.023 107.643 209.284 108.589 209.806 109.269C210.333 109.948 211.074 110.288 212.029 110.288ZM221.478 111.176C220.669 111.176 219.937 110.977 219.28 110.578C218.63 110.18 218.123 109.626 217.76 108.917C217.396 108.202 217.215 107.402 217.215 106.518V106.14C217.215 105.226 217.391 104.402 217.742 103.67C218.1 102.938 218.595 102.363 219.228 101.947C219.86 101.525 220.546 101.314 221.284 101.314C222.438 101.314 223.353 101.71 224.026 102.501C224.706 103.286 225.046 104.361 225.046 105.727V106.315H218.261V106.518C218.261 107.596 218.568 108.495 219.184 109.216C219.805 109.931 220.584 110.288 221.521 110.288C222.084 110.288 222.579 110.186 223.007 109.98C223.44 109.775 223.833 109.447 224.185 108.996L224.844 109.497C224.07 110.616 222.948 111.176 221.478 111.176ZM221.284 102.211C220.493 102.211 219.825 102.501 219.28 103.081C218.741 103.661 218.413 104.44 218.296 105.419H224V105.305C223.971 104.391 223.71 103.646 223.218 103.072C222.726 102.498 222.081 102.211 221.284 102.211Z" fill="#383838"/>
    <defs>
    <filter id="filter0_d_196_71" x="4" y="14" width="339" height="135" filterUnits="userSpaceOnUse" color-interpolation-filters="sRGB">
    <feFlood flood-opacity="0" result="BackgroundImageFix"/>
    <feColorMatrix in="SourceAlpha" type="matrix" values="0 0 0 0 0 0 0 0 0 0 0 0 0 0 0 0 0 0 127 0" result="hardAlpha"/>
    <feOffset dx="2" dy="7"/>
    <feGaussianBlur stdDeviation="6"/>
    <feComposite in2="hardAlpha" operator="out"/>
    <feColorMatrix type="matrix" values="0 0 0 0 0.516667 0 0 0 0 0.508056 0 0 0 0 0.508056 0 0 0 0.25 0"/>
    <feBlend mode="normal" in2="BackgroundImageFix" result="effect1_dropShadow_196_71"/>
    <feBlend mode="normal" in="SourceGraphic" in2="effect1_dropShadow_196_71" result="shape"/>
    </filter>
    <filter id="filter1_d_196_71" x="0" y="0" width="339" height="135" filterUnits="userSpaceOnUse" color-interpolation-filters="sRGB">
    <feFlood flood-opacity="0" result="BackgroundImageFix"/>
    <feColorMatrix in="SourceAlpha" type="matrix" values="0 0 0 0 0 0 0 0 0 0 0 0 0 0 0 0 0 0 127 0" result="hardAlpha"/>
    <feOffset dx="-2" dy="-7"/>
    <feGaussianBlur stdDeviation="6"/>
    <feComposite in2="hardAlpha" operator="out"/>
    <feColorMatrix type="matrix" values="0 0 0 0 1 0 0 0 0 1 0 0 0 0 1 0 0 0 1 0"/>
    <feBlend mode="normal" in2="BackgroundImageFix" result="effect1_dropShadow_196_71"/>
    <feBlend mode="normal" in="SourceGraphic" in2="effect1_dropShadow_196_71" result="shape"/>
    </filter>
    </defs>
    </svg>
    